<?xml version="1.0" standalone="no"?>
<!DOCTYPE svg PUBLIC "-//W3C//DTD SVG 20010904//EN"
 "http://www.w3.org/TR/2001/REC-SVG-20010904/DTD/svg10.dtd">
<svg version="1.0" xmlns="http://www.w3.org/2000/svg"
 width="16.000000pt" height="16.000000pt" viewBox="0 0 16.000000 16.000000"
 preserveAspectRatio="xMidYMid meet">
<metadata>
Created by potrace 1.11, written by Peter Selinger 2001-2013
</metadata>
<g transform="translate(0.000000,16.000000) scale(0.002020,-0.002020)"
fill="#000000" stroke="none">
<path d="M4247 6854 c-1 -1 -83 -5 -182 -8 -193 -7 -295 -12 -390 -21 -90 -7
-193 -15 -260 -20 -198 -13 -241 -25 -530 -148 -79 -34 -256 -126 -272 -143
-23 -23 -131 -94 -142 -94 -6 0 -11 -4 -11 -10 0 -5 -5 -10 -12 -10 -10 0
-224 -129 -253 -152 -5 -5 -46 -34 -90 -66 -106 -76 -122 -90 -240 -207 -112
-111 -157 -164 -233 -275 -28 -41 -55 -80 -59 -86 -15 -20 -33 -49 -40 -64 -4
-8 -22 -39 -40 -67 -18 -29 -32 -54 -31 -55 2 -2 -7 -16 -18 -33 -21 -29 -154
-288 -154 -299 0 -3 -12 -31 -26 -62 -67 -148 -167 -441 -188 -554 -2 -14 -10
-47 -16 -75 -18 -76 -20 -86 -28 -140 -9 -61 -9 -290 1 -365 3 -30 9 -77 12
-105 10 -97 24 -185 40 -264 2 -12 7 -44 10 -69 3 -26 7 -54 10 -62 2 -8 7
-27 10 -42 33 -173 85 -393 119 -508 9 -30 19 -65 21 -77 6 -27 50 -152 73
-208 26 -62 132 -268 148 -286 8 -8 14 -20 14 -26 0 -10 136 -222 149 -233 3
-3 19 -23 36 -45 44 -60 80 -100 180 -200 101 -100 140 -134 259 -218 44 -32
89 -64 99 -72 9 -8 19 -15 21 -15 3 0 39 -20 80 -45 42 -25 79 -45 82 -45 3 0
19 -9 35 -21 16 -11 29 -18 29 -15 0 3 36 -13 80 -35 44 -21 86 -39 93 -39 7
0 17 -4 23 -9 12 -12 113 -48 149 -54 17 -3 37 -7 45 -10 8 -3 34 -8 57 -11
22 -3 52 -8 65 -11 12 -3 41 -7 63 -9 22 -2 51 -6 65 -9 23 -6 87 -13 200 -23
25 -2 65 -6 90 -9 25 -2 95 -7 155 -10 61 -3 142 -7 180 -10 200 -12 652 1
735 21 14 3 32 6 40 6 8 0 33 4 55 9 22 4 54 10 70 13 17 4 57 13 90 21 33 9
69 17 80 20 51 12 234 75 320 110 11 5 22 9 25 10 48 16 268 124 360 175 90
51 282 178 292 194 4 6 8 8 8 4 0 -7 22 10 75 57 13 11 40 34 61 50 76 59 237
226 289 299 11 16 25 33 31 40 6 6 19 25 30 41 10 17 22 35 27 40 7 8 61 92
144 221 7 10 22 35 33 54 11 19 31 53 44 75 14 22 35 60 47 85 13 25 25 47 28
50 4 3 20 32 36 65 16 33 33 62 37 63 4 2 8 8 8 14 0 5 14 40 31 76 84 179 96
217 104 327 3 39 7 90 10 115 18 165 24 409 12 575 -7 101 -18 208 -23 216 -2
4 -6 31 -10 60 -3 30 -10 62 -16 72 -5 9 -7 17 -4 17 10 0 -57 259 -106 409
-18 53 -33 103 -34 111 -2 8 -7 23 -13 35 -8 17 -19 45 -26 65 -2 7 -15 40
-25 65 -4 11 -20 49 -36 84 -16 35 -29 67 -29 70 0 3 -3 11 -7 16 -3 6 -29 54
-57 109 -29 54 -79 141 -111 193 -33 52 -60 97 -60 100 0 3 -8 17 -19 31 -10
15 -48 77 -83 137 -35 61 -75 124 -88 140 -28 34 -254 259 -291 290 -185 154
-226 188 -239 198 -9 7 -42 32 -75 57 -33 25 -64 49 -70 53 -5 4 -41 30 -80
57 -38 27 -75 53 -81 57 -11 9 -17 13 -129 80 -204 124 -357 170 -630 189 -85
5 -254 11 -258 8z"/>
</g>
</svg>
